<!-- original file from wireframe changed from arrow to cannabis leaf -->
<svg xmlns="http://www.w3.org/2000/svg" xmlns:xlink="http://www.w3.org/1999/xlink" width="90px" height="66px" viewBox="0 0 90 66" zoomAndPan="disable">

	<line x1="11" y1="21" x2="45.5" y2="45" style="stroke:#fff;stroke-width:1" />
	<line x1="45.5" y1="45" x2="80" y2="21" style="stroke:#fff;stroke-width:1" />
	<line x1="11" y1="21" x2="45.5" y2="66" style="stroke:#fff;stroke-width:1" />
	<line x1="80" y1="21" x2="45.5" y2="66" style="stroke:#fff;stroke-width:1" />
	
	<line x1="1" y1="31" x2="45.5" y2="54" style="stroke:#fff;stroke-width:1" />
	<line x1="45.5" y1="54" x2="90" y2="31" style="stroke:#fff;stroke-width:1" />
	<line x1="1" y1="31" x2="45.5" y2="66" style="stroke:#fff;stroke-width:1" />
	<line x1="90" y1="31" x2="45.5" y2="66" style="stroke:#fff;stroke-width:1" />

	<line x1="11" y1="54" x2="45.5" y2="66" style="stroke:#fff;stroke-width:1" />
	<line x1="11" y1="54" x2="79" y2="54" style="stroke:#fff;stroke-width:1" />
	<line x1="79" y1="54" x2="45.5" y2="66" style="stroke:#fff;stroke-width:1" />

	<line x1="45.5" y1="54" x2="35" y2="15.5" style="stroke:#fff;stroke-width:1" />
	<line x1="35" y1="15.5" x2="45.5" y2="1" style="stroke:#fff;stroke-width:1" />
	<line x1="45.5" y1="1" x2="55" y2="15.5" style="stroke:#fff;stroke-width:1" />
	<line x1="55" y1="15.5" x2="45.5" y2="54" style="stroke:#fff;stroke-width:1" />

		

	<!-- <line x1="1" y1="1" x2="90" y2="1" style="stroke:#fff;stroke-width:1" /> -->


</svg>